<?xml version="1.0" standalone="no"?><!DOCTYPE svg PUBLIC "-//W3C//DTD SVG 1.1//EN" "http://www.w3.org/Graphics/SVG/1.1/DTD/svg11.dtd"><svg t="1655368670952" class="icon" viewBox="0 0 1024 1024" version="1.1" xmlns="http://www.w3.org/2000/svg" p-id="14850" xmlns:xlink="http://www.w3.org/1999/xlink" width="200" height="200"><defs><style type="text/css">@font-face { font-family: feedback-iconfont; src: url("//at.alicdn.com/t/font_1031158_u69w8yhxdu.woff2?t=1630033759944") format("woff2"), url("//at.alicdn.com/t/font_1031158_u69w8yhxdu.woff?t=1630033759944") format("woff"), url("//at.alicdn.com/t/font_1031158_u69w8yhxdu.ttf?t=1630033759944") format("truetype"); }
</style></defs><path d="M947.2 262.981818h-174.545455l-160.581818-134.981818c-2.327273-2.327273-4.654545-2.327273-6.981818-4.654545v-13.963637c0-51.2-41.890909-93.090909-93.090909-93.090909s-93.090909 41.890909-93.090909 93.090909c0 9.309091 2.327273 18.618182 4.654545 27.927273l-153.6 128H76.8c-34.909091 0-62.836364 27.927273-62.836364 62.836364v621.381818c0 34.909091 27.927273 62.836364 62.836364 62.836363h870.4c34.909091 0 62.836364-27.927273 62.836364-62.836363V325.818182c-2.327273-34.909091-30.254545-62.836364-62.836364-62.836364zM512 76.8c16.290909 0 30.254545 13.963636 30.254545 30.254545 0 18.618182-13.963636 32.581818-30.254545 32.581819-16.290909 0-30.254545-13.963636-30.254545-30.254546 0-18.618182 13.963636-32.581818 30.254545-32.581818zM460.8 186.181818c13.963636 9.309091 32.581818 16.290909 51.2 16.290909 23.272727 0 44.218182-9.309091 60.509091-23.272727l102.4 86.109091H365.381818L460.8 186.181818z" fill="#897C6A" p-id="14851"></path><path d="M947.2 1024H76.8C34.909091 1024 0 989.090909 0 947.2V325.818182c0-41.890909 34.909091-76.8 76.8-76.8h186.181818l141.963637-118.690909c-2.327273-6.981818-2.327273-13.963636-2.327273-20.945455C402.618182 48.872727 451.490909 0 512 0s109.381818 48.872727 109.381818 109.381818v9.309091l155.927273 130.327273h169.890909c41.890909 0 76.8 34.909091 76.8 76.8v621.381818c0 41.890909-34.909091 76.8-76.8 76.8zM76.8 279.272727c-25.6 0-46.545455 20.945455-46.545455 46.545455v621.381818c0 25.6 20.945455 46.545455 46.545455 46.545455h868.072727c25.6 0 46.545455-20.945455 46.545455-46.545455V325.818182c0-25.6-20.945455-46.545455-46.545455-46.545455h-181.527272l-165.236364-139.636363-2.327273-2.327273-9.309091-4.654546 2.327273-11.636363v-13.963637c0-41.890909-34.909091-76.8-76.8-76.8s-76.8 34.909091-76.8 76.8c0 6.981818 0 16.290909 2.327273 23.272728l2.327272 9.309091-165.236363 139.636363H76.8z m640 0H323.490909l134.981818-114.036363 9.309091 6.981818c27.927273 18.618182 69.818182 16.290909 95.418182-4.654546l9.309091-9.309091 144.290909 121.018182z m-307.2-30.254545h223.418182l-58.181818-48.872727c-32.581818 20.945455-76.8 23.272727-111.709091 6.981818l-53.527273 41.890909z m102.4-93.090909c-25.6 0-46.545455-20.945455-46.545455-46.545455s20.945455-46.545455 46.545455-46.545454 46.545455 20.945455 46.545455 46.545454-20.945455 46.545455-46.545455 46.545455zM512 93.090909c-9.309091 0-16.290909 6.981818-16.290909 16.290909s6.981818 16.290909 16.290909 16.290909c9.309091 0 16.290909-6.981818 16.290909-16.290909S521.309091 93.090909 512 93.090909z" fill="#756355" p-id="14852"></path><path d="M898.327273 498.036364l-46.545455-39.563637c-25.6-20.945455-65.163636-18.618182-88.436363 6.981818L525.963636 747.054545c-4.654545 6.981818-9.309091 13.963636-11.636363 23.272728l-27.927273 95.418182c-2.327273 11.636364-2.327273 25.6 2.327273 34.90909 11.636364 25.6 41.890909 34.909091 67.490909 23.272728l90.763636-44.218182c6.981818-4.654545 13.963636-9.309091 20.945455-16.290909L905.309091 581.818182c23.272727-23.272727 18.618182-62.836364-6.981818-83.781818zM837.818182 570.181818l-214.109091 256c-4.654545 4.654545-9.309091 9.309091-16.290909 13.963637l-32.581818 18.618181c-6.981818 4.654545-18.618182 2.327273-23.272728-4.654545-2.327273-4.654545-2.327273-9.309091-2.327272-13.963636l13.963636-34.909091c2.327273-6.981818 6.981818-11.636364 9.309091-18.618182l214.109091-256c11.636364-13.963636 30.254545-13.963636 44.218182-4.654546 16.290909 11.636364 16.290909 32.581818 6.981818 44.218182zM442.181818 574.836364H162.909091c-16.290909 0-30.254545 13.963636-30.254546 30.254545 0 16.290909 13.963636 30.254545 30.254546 30.254546h279.272727c16.290909 0 30.254545-13.963636 30.254546-30.254546 0-16.290909-11.636364-30.254545-30.254546-30.254545zM162.909091 512h509.672727c16.290909 0 30.254545-13.963636 30.254546-30.254545 0-16.290909-13.963636-30.254545-30.254546-30.254546H162.909091c-16.290909 0-30.254545 13.963636-30.254546 30.254546-2.327273 16.290909 11.636364 30.254545 30.254546 30.254545zM60.509091 328.145455h-2.327273c-6.981818 0-13.963636 6.981818-13.963636 13.963636v195.490909c0 6.981818 6.981818 13.963636 13.963636 13.963636h2.327273c6.981818 0 13.963636-6.981818 13.963636-13.963636v-195.490909c0-6.981818-6.981818-13.963636-13.963636-13.963636z" fill="#FCFCFF" p-id="14853"></path><path d="M60.509091 584.145455m-13.963636 0a13.963636 13.963636 0 1 0 27.927272 0 13.963636 13.963636 0 1 0-27.927272 0Z" fill="#FCFCFF" p-id="14854"></path></svg>