<?xml version="1.0" standalone="no"?><!DOCTYPE svg PUBLIC "-//W3C//DTD SVG 1.1//EN" "http://www.w3.org/Graphics/SVG/1.1/DTD/svg11.dtd"><svg t="1655177479790" class="icon" viewBox="0 0 1024 1024" version="1.1" xmlns="http://www.w3.org/2000/svg" p-id="2114" xmlns:xlink="http://www.w3.org/1999/xlink" width="200" height="200"><defs><style type="text/css">@font-face { font-family: feedback-iconfont; src: url("//at.alicdn.com/t/font_1031158_u69w8yhxdu.woff2?t=1630033759944") format("woff2"), url("//at.alicdn.com/t/font_1031158_u69w8yhxdu.woff?t=1630033759944") format("woff"), url("//at.alicdn.com/t/font_1031158_u69w8yhxdu.ttf?t=1630033759944") format("truetype"); }
</style></defs><path d="M741.076814 908.240533l-151.418618 0L589.658196 700.033537c0-28.439726-22.793122-51.576679-50.809199-51.576679l-64.377216 0c-28.002774 0-50.78464 23.136953-50.78464 51.576679l0 208.206996L281.612331 908.240533c-50.832735 0-92.188632-41.792848-92.188632-93.16282l0-264.176728c0-10.9504 5.244444-21.379936 14.036691-27.92398l268.763187-207.772091 0.150426-0.209778 1.514493-1.083681c11.067057-7.918343 24.02416-12.104689 37.471426-12.104689 13.520945 0.063445 26.415626 4.233418 37.362956 12.06478 0.267083 0.177032 0.522909 0.361227 0.768503 0.554632l0.064468 0.051165c0.011256 0.008186 0.021489 0.016373 0.030699 0.024559l269.724071 208.497615c8.740058 6.575766 13.954827 16.998139 13.954827 27.901467l0 264.176728C833.265446 866.447684 791.909549 908.240533 741.076814 908.240533zM612.170932 885.727797l128.905882 0c38.419008 0 69.675896-31.69384 69.675896-70.650083l0-264.176728c0-3.876284-1.871627-7.589862-5.006014-9.933233l-0.144286-0.10847L536.150538 332.570421l-0.49835-0.296759-0.355087-0.323365c-7.062859-4.953825-15.344476-7.589862-23.989367-7.630794-8.506744 0-16.781198 2.63092-23.913643 7.613398-0.122797 0.098237-0.246617 0.193405-0.373507 0.287549l-269.980921 208.713532-0.100284 0.072655c-3.133364 2.313695-5.003967 6.011924-5.003967 9.893324l0 264.176728c0 38.956244 31.255865 70.650083 69.675896 70.650083l119.562073 0L401.17338 700.033537c0-40.853453 32.880875-74.089415 73.297376-74.089415l64.377216 0c40.430828 0 73.321936 33.235962 73.321936 74.089415L612.169909 885.727797zM925.849074 537.01779c-0.001023 0 0 0-0.002047 0-7.30129-0.001023-14.290471-2.291183-20.210297-6.625908l-0.172939-0.128937L517.175371 234.428194c-0.231267-0.1361-0.48914-0.298805-0.760317-0.487094l-0.200568-0.14224c-1.407046-1.020236-3.086291-1.559519-4.854565-1.559519-1.775436 0-3.478218 0.549515-4.924149 1.587148l-0.405229 0.277316c-0.073678 0.048095-0.148379 0.096191-0.223081 0.14224L117.086184 530.385742c-5.913687 4.338818-12.898775 6.632047-20.202111 6.632047-11.005658 0-21.440311-5.357008-27.910677-14.33038-11.034311-15.414061-7.647167-37.040614 7.519254-48.288796l389.141858-296.365848 0.097214-0.106424 1.391696-0.991584c13.033851-9.178033 28.318976-14.026458 44.236504-14.026458 15.217586 0 29.953196 4.505617 42.646286 13.033851 0.916882 0.533143 1.821485 1.130753 2.696412 1.781576l0.12996 0.098237 129.96705 99.620905c3.693112-19.992333 21.095457-35.172057 41.941228-35.172057l59.918671 0c23.539112 0 42.689265 19.333324 42.689265 43.097564l0 98.493222 114.981754 90.598414c15.112186 11.274788 18.453281 32.857339 7.427156 48.210002C947.299619 531.654642 936.865989 537.01779 925.849074 537.01779zM919.003156 512.277316c2.02103 1.457188 4.38589 2.227738 6.844895 2.227738 0 0 0 0 0.001023 0 3.845585 0 7.353478-1.812275 9.623171-4.971222 3.911076-5.446036 2.718925-13.105482-2.660596-17.070794l-0.286526-0.218988L808.835034 394.783345 808.835034 285.367353c0-11.350512-9.051143-20.584827-20.176528-20.584827L728.740858 264.782525c-11.111059 0-20.150946 9.234315-20.150946 20.584827l0 37.141922L543.218514 195.750289c-0.211824-0.154519-0.411369-0.283456-0.608867-0.39295l-0.88209-0.542352c-9.029654-6.145977-19.530822-9.394974-30.367635-9.394974-11.17962 0-21.921265 3.387144-31.104415 9.801227-0.344854 0.285502-0.730641 0.576121-1.158383 0.855484L89.929684 492.460991c-5.379521 3.967358-6.578836 11.634991-2.673899 17.089214 2.261507 3.137457 5.779633 4.954849 9.628288 4.954849 2.452865 0 4.808516-0.768503 6.819313-2.223644l390.466016-297.468972 0.430812-0.154519c5.006014-3.230578 10.767228-4.931313 16.758686-4.931313 6.290263 0 12.30628 1.866511 17.447371 5.406127 0.066515 0.037862 0.134053 0.075725 0.199545 0.11461l0.600681 0.349971 0.551562 0.421602L919.003156 512.277316z" p-id="2115"></path></svg>