<?xml version="1.0" standalone="no"?><!DOCTYPE svg PUBLIC "-//W3C//DTD SVG 1.1//EN" "http://www.w3.org/Graphics/SVG/1.1/DTD/svg11.dtd"><svg t="1655368004378" class="icon" viewBox="0 0 1024 1024" version="1.1" xmlns="http://www.w3.org/2000/svg" p-id="10784" xmlns:xlink="http://www.w3.org/1999/xlink" width="200" height="200"><defs><style type="text/css">@font-face { font-family: feedback-iconfont; src: url("//at.alicdn.com/t/font_1031158_u69w8yhxdu.woff2?t=1630033759944") format("woff2"), url("//at.alicdn.com/t/font_1031158_u69w8yhxdu.woff?t=1630033759944") format("woff"), url("//at.alicdn.com/t/font_1031158_u69w8yhxdu.ttf?t=1630033759944") format("truetype"); }
</style></defs><path d="M724.1 932H147.2s-60.7-72.1 14.3-85c75-12.8 67.9-66.4 94.7-77.8s63.4-37.1 111.6-16.4c48.2 20.7 45.5 27.8 96.4 46.4 50.9 18.6 120.6 13.6 177.7-0.7 57.2-14.3 28.6-41.4 92.9-14.3 64.3 27.1 63.4 18.6 83 37.1s22.3 12.1 36.6 32.8 45.5 45.7 45.5 45.7V932H724.1z" fill="#9DEAFF" p-id="10785"></path><path d="M893 893.9V926H140.2s-13.8-16.4-20.1-35H640c17.7 0 108.5-92.1 88.8-110.7-1.2-1.1-2.3-2.1-3.4-3.1 0.8 0.3 1.5 0.6 2.3 1 64.3 27.1 63.4 18.6 83 37.1 19.6 18.6 22.3 12.1 36.6 32.8 14.5 20.8 45.7 45.8 45.7 45.8z" fill="#07DBFF" p-id="10786"></path><path d="M512 697.8m-234.2 0a234.2 234.2 0 1 0 468.4 0 234.2 234.2 0 1 0-468.4 0Z" fill="#F0FCFF" p-id="10787"></path><path d="M512.5 383.6m-149.9 0a149.9 149.9 0 1 0 299.8 0 149.9 149.9 0 1 0-299.8 0Z" fill="#F0FCFF" p-id="10788"></path><path d="M655.3 512.6c-0.5-0.1-1.1-0.2-1.6-0.3-0.7-0.8-1.3-1.7-2-2.5 1.3 1 2.5 1.9 3.6 2.8zM662.5 383.6c0 37.9-14 72.5-37.2 98.9-14.4-12.7-30.4-23.6-47.7-32.5 27-27.1 43.6-64.5 43.6-105.7 0-32.4-10.3-62.4-27.7-86.9 41.5 26.6 69 73.2 69 126.2z" fill="#9DEAFF" p-id="10789"></path><path d="M746.2 697.8C746.2 827.1 641.3 932 512 932c-72.9 0-138.1-33.3-181-85.6 39 29 87.4 46.2 139.7 46.2 129.3 0 234.2-104.8 234.2-234.2 0-37.3-8.7-72.6-24.3-104-1.6 5.3-4.5 10-8.3 13.9-6 6-14.2 9.7-23.3 9.7H499v-21.5c0-9.8-4-18.7-10.4-25.1-6.4-6.4-15.3-10.4-25.1-10.4-19.6 0-35.5 15.9-35.5 35.5V578h-13c-18.2 0-33-14.8-33-33 0-9.1 3.7-17.4 9.7-23.3 6-6 14.2-9.7 23.3-9.7h234c1.6 0 3.2 0.1 4.8 0.3 0.5 0.1 1.1 0.2 1.6 0.3 8.9 6.9 17.4 14.5 25.2 22.6 40.6 42.1 65.6 99.4 65.6 162.6z" fill="#9DEAFF" p-id="10790"></path><path d="M499 556.5V578h-71v-21.5c0-19.6 15.9-35.5 35.5-35.5 9.8 0 18.7 4 25.1 10.4 6.4 6.4 10.4 15.3 10.4 25.1z" fill="#9DEAFF" p-id="10791"></path><path d="M499 556.5v131c0 19.6-15.9 35.5-35.5 35.5S428 707.1 428 687.5v-131c0-19.6 15.9-35.5 35.5-35.5 9.8 0 18.7 4 25.1 10.4 6.4 6.4 10.4 15.3 10.4 25.1z" fill="#9DEAFF" p-id="10792"></path><path d="M627.4 125.4l-11.9 92.4-5 39.2h-197l-5-39.2-11.9-92.4C394.3 107.7 408.1 92 426 92h172c17.9 0 31.7 15.7 29.4 33.4z" fill="#1E0D00" p-id="10793"></path><path d="M615.5 207.2l-5 39.2h-197l-5-39.2z" fill="#E73F5F" p-id="10794"></path><path d="M563.8 246.4l3.7-28.6 1.4-10.6z" fill="#1E0D00" p-id="10795"></path><path d="M568.9 207.2l10.5-81.8C581.7 107.7 567.9 92 550 92h40c17.8 0 31.6 15.7 29.3 33.4l-11.9 92.4-5 39.2h-40l1.4-10.6 5.1-39.2z" p-id="10796"></path><path d="M568.9 207.2h38.6l-5 39.2h-38.7z" fill="#CE1743" p-id="10797"></path><path d="M432.3 691.5h-3.8c-17.6 0-32-14.4-32-32V541.2c0-17.6 14.4-32 32-32h3.8c17.6 0 32 14.4 32 32v118.3c0 17.6-14.4 32-32 32z" fill="#E73F5F" p-id="10798"></path><path d="M464.3 541v118.5c0 17.6-14.4 32-32 32h-3.8c-17.6 0-32-14.4-32-32v-2h1c17.6 0 32-14.4 32-32V541h34.8z" fill="#CE1743" p-id="10799"></path><path d="M629.3 541H394.7c-21.7 0-39.5-17.8-39.5-39.5v-4.7c0-21.7 17.8-39.5 39.5-39.5h234.7c21.7 0 39.5 17.8 39.5 39.5v4.7c-0.1 21.7-17.8 39.5-39.6 39.5z" fill="#E73F5F" p-id="10800"></path><path d="M668.8 496.8v4.7c0 21.7-17.8 39.5-39.5 39.5H394.7c-13.8 0-25.9-7.1-33-17.9-3.2-4.8-5.3-10.4-6.1-16.4 1.4 0.2 2.8 0.2 4.3 0.2h234.7c21.7 0 39.5-17.8 39.5-39.5v-4.7c0-1.8-0.1-3.6-0.4-5.3 19.7 2.3 35.1 19.1 35.1 39.4z" fill="#CE1743" p-id="10801"></path><path d="M512 629.8m-30.2 0a30.2 30.2 0 1 0 60.4 0 30.2 30.2 0 1 0-60.4 0Z" fill="#3F1E01" p-id="10802"></path><path d="M512 734m-30.2 0a30.2 30.2 0 1 0 60.4 0 30.2 30.2 0 1 0-60.4 0Z" fill="#3F1E01" p-id="10803"></path><path d="M462.7 344.4m-14.3 0a14.3 14.3 0 1 0 28.6 0 14.3 14.3 0 1 0-28.6 0Z" fill="#3F1E01" p-id="10804"></path><path d="M561.3 344.4m-14.3 0a14.3 14.3 0 1 0 28.6 0 14.3 14.3 0 1 0-28.6 0Z" fill="#3F1E01" p-id="10805"></path><path d="M512 393.2m-30.2 0a30.2 30.2 0 1 0 60.4 0 30.2 30.2 0 1 0-60.4 0Z" fill="#EEE003" p-id="10806"></path><path d="M912.4 884.2c-8-6.4-31.2-26.5-41.5-41.5-9.9-14.3-16.1-18.9-24.5-24.3-4-2.6-8-5.2-14.9-11.7-14.3-13.5-21.7-16.3-38.5-21.9-8.1-2.7-19.7-6.6-37.6-13.8 7-23.2 10.8-47.8 10.8-73.2 0-33.2-6.5-65.9-18.9-96.3l28.3-25.7c1.9 0.6 3.9 0.9 6 0.9h84.8c11 0 20-9 20-20 0-11.1-9-20-20-20h-47.7l95-86c8.2-7.4 8.8-20.1 1.4-28.2-7.4-8.2-20.1-8.8-28.2-1.4l-45.4 41-5-52.5c-1-11-10.8-19-21.8-18-11 1.1-19.1 10.8-18 21.8l7.9 82.2-76.1 68.9c-0.2-0.4-0.5-0.8-0.7-1.1-11.4-18.2-24.9-34.8-40.3-49.5 0.9-4 1.4-8.2 1.4-12.5v-4.7c0-18.2-8.2-34.5-21.1-45.4 9.1-20.8 14.1-43.7 14.1-67.8 0-37.2-12-71.6-32.3-99.6h35.3c11 0 20-9 19.9-20v-2.4c0-11-9-20-20-20h-52.2l2.7-21.2 11.9-92.4c1.8-14.1-2.5-28.4-11.9-39.1-9.4-10.6-23-16.8-37.3-16.8H426c-14.3 0-27.9 6.2-37.3 16.9-9.4 10.7-13.8 25-11.9 39.1l11.9 92.4 2.7 21.3h-52.3c-11 0-20 9-20 20v2.4c0 11 9 20 20 20h35.3c-20.3 28-32.3 62.4-32.3 99.6 0 24.1 5.1 47.1 14.1 67.9-12.9 10.9-21 27.2-21 45.3v4.7c0 4.3 0.5 8.4 1.3 12.4-15.3 14.6-28.8 31.1-40.1 49.2l-0.9 1.5-76.1-68.9 7.9-82.2c1-11-7-20.8-18-21.8s-20.8 7-21.8 18l-5 52.5-45.4-41c-8.2-7.4-20.8-6.8-28.2 1.4-7.4 8.2-6.8 20.8 1.4 28.2l95 86h-47.7c-11 0-20 8.9-20 20 0 11 9 20 20 20h84.8c2.1 0 4.1-0.3 6-0.9l28.3 25.6c-12.4 30.4-18.9 63-18.9 96.2 0 15.9 1.5 31.5 4.3 46.6-0.4 0.2-0.9 0.4-1.3 0.6-4.5 2.1-8.7 4.2-12.4 5.8-15.8 6.7-23.6 20.6-30.5 32.9-10.7 19-20.7 36.9-59.8 43.6-18.5 3.2-42.5 12-51.1 35.5-5.9 16.2-3.1 35.4 8.3 57 7.3 13.9 15.7 24 16.6 25 3.8 4.5 9.4 7.1 15.3 7.1h752.7c11 0 20-9 20-20v-32.2c0-6-2.8-11.7-7.5-15.5zM418.7 115.3c1.1-1.2 3.5-3.3 7.3-3.3h172c3.8 0 6.2 2 7.3 3.3 1.1 1.2 2.8 3.8 2.3 7.5l-11.9 92.4-2.4 19.1-0.3 2.6H431.1l-0.3-2.6-2.4-19.2-11.9-92.4c-0.5-3.6 1.2-6.2 2.2-7.4z m10 168.7h166.6c28.5 23.8 46.6 59.6 46.6 99.6 0 19.2-4.2 37.3-11.6 53.7H393.7c-7.5-16.4-11.6-34.6-11.6-53.7 0-40 18.1-75.8 46.6-99.6z m-53.5 212.8c0-3.3 0.9-6.5 2.5-9.3 3.4-6 9.8-10.2 17-10.2h234.7c7.2 0 13.6 4.1 17 10.1 1.6 2.8 2.5 6 2.5 9.4v4.6c-0.1 9.7-7.2 17.8-16.5 19.3-1 0.2-2.1 0.3-3.2 0.3H394.7c-1.1 0-2.2-0.1-3.2-0.3-3.3-0.6-6.3-2-8.9-4-4.5-3.6-7.5-9.1-7.5-15.2v-4.7z m69.1 64.2v98.5c0 6.5-5.5 12-12 12h-3.8c-6.5 0-12-5.5-12-12V561h27.8zM297.8 697.8c0-23 3.7-45.7 10.8-67.3 4.4-13.3 10.1-26.2 17.1-38.5 1.5-2.6 3-5.2 4.6-7.7 8.1-12.9 17.5-24.9 28.1-35.8 5.4 4.2 11.5 7.4 18.1 9.6v101.3c0 1 0 1.9 0.1 2.9 1.5 27.3 24.2 49.1 51.9 49.1h3.8c28.7 0 52-23.3 52-52V561h145c13.6 0 26.2-4.6 36.3-12.4 10.6 10.9 20.1 23 28.3 36.1 1.5 2.4 3 4.9 4.4 7.4 7 12.3 12.7 25.2 17.1 38.5 7.1 21.6 10.8 44.3 10.8 67.4 0 20.3-2.8 40-8.2 58.6-3.7 13-8.6 25.5-14.6 37.4-35.2 69.9-107.8 118-191.4 118-93.5 0-173.2-60.2-202.3-143.9-4.3-12.5-7.6-25.4-9.5-38.8-1.6-10.3-2.4-20.8-2.4-31.5zM157.2 912c-8-11.8-15.4-27.8-12.6-35.5 1.6-4.3 9-7.9 20.3-9.8 57.8-9.9 75.9-42.1 87.9-63.4 3.9-7 8-14.3 11.3-15.7 2.9-1.2 5.8-2.5 8.7-3.9C292 836.9 328.4 882 375.3 912H157.2z m722.7 0H648.8c39.5-25.3 71.6-61.2 92.1-103.7 18.7 7.5 30.9 11.6 39.4 14.4 14.2 4.7 15.3 5.1 23.7 13.1 9.5 8.9 15.9 13.1 20.6 16.1 5.1 3.3 7.2 4.7 13.3 13.5 11.3 16.4 31.1 34.4 42 43.7v2.9z" fill="#3F1E01" p-id="10807"></path><path d="M512 433.4c22.2 0 40.2-18 40.2-40.2S534.2 353 512 353s-40.2 18-40.2 40.2 18 40.2 40.2 40.2z m0-60.4c11.1 0 20.2 9.1 20.2 20.2s-9.1 20.2-20.2 20.2-20.2-9.1-20.2-20.2S500.9 373 512 373z" fill="#3F1E01" p-id="10808"></path></svg>