<?xml version="1.0" standalone="no"?><!DOCTYPE svg PUBLIC "-//W3C//DTD SVG 1.1//EN" "http://www.w3.org/Graphics/SVG/1.1/DTD/svg11.dtd"><svg t="1655177584878" class="icon" viewBox="0 0 1024 1024" version="1.1" xmlns="http://www.w3.org/2000/svg" p-id="2263" xmlns:xlink="http://www.w3.org/1999/xlink" width="200" height="200"><defs><style type="text/css">@font-face { font-family: feedback-iconfont; src: url("//at.alicdn.com/t/font_1031158_u69w8yhxdu.woff2?t=1630033759944") format("woff2"), url("//at.alicdn.com/t/font_1031158_u69w8yhxdu.woff?t=1630033759944") format("woff"), url("//at.alicdn.com/t/font_1031158_u69w8yhxdu.ttf?t=1630033759944") format("truetype"); }
</style></defs><path d="M951.094038 460.415135l-122.410957-96.449679L828.683081 257.393231c0-18.010189-14.432711-32.644491-32.222889-32.644491l-61.428048 0c-17.790178 0-32.19833 14.634302-32.19833 32.644491l0 14.691607L551.771307 156.294672c-0.63752-0.474814-1.292436-0.900509-1.971911-1.278109-11.121292-7.568373-24.112164-11.629875-37.625946-11.629875-14.09502 0-27.580149 4.329609-39.073924 12.535501-0.125867 0.137123-0.318248 0.293689-0.497327 0.372483L73.277422 460.415135c-10.626012 7.837502-12.94073 22.813588-5.27412 33.524534 7.717775 10.700713 22.537296 13.117762 33.138748 5.337565l398.98504-303.959803c0.079818-0.028653 0.183172-0.082888 0.265036-0.1361 3.438309-2.471284 7.53051-3.795443 11.782348-3.795443s8.341992 1.324158 11.750625 3.795443c0.156566 0.107447 0.343831 0.185218 0.529049 0.292666l398.74661 303.803237c10.627035 7.780197 25.451672 5.362124 33.142841-5.337565C964.034768 483.229746 961.72005 468.25366 951.094038 460.415135L951.094038 460.415135zM820.888558 510.189771 544.164049 296.27989c-0.054235-0.053212-0.161682-0.102331-0.192382-0.132006-9.334599-6.742565-20.333094-10.308787-31.79617-10.361999-11.414981 0-22.388916 3.590781-31.699979 10.254551-0.078795 0.107447-0.181125 0.138146-0.288572 0.240477l-276.701996 213.909881c-6.189979 4.569062-9.81453 11.795651-9.81453 19.424398l0 270.833335c0 46.325072 37.262672 83.969437 82.97069 83.969437l134.11451 0L410.75562 682.503279c0-35.622312 28.469402-64.416102 63.60462-64.416102l65.998133 0c35.134195 0 63.629179 28.794813 63.629179 64.416102l0 201.912639 143.69368 0c45.762253 0 82.97069-37.644365 82.97069-83.969437L830.651922 529.61417C830.648852 521.984399 826.999742 514.75781 820.888558 510.189771L820.888558 510.189771zM820.888558 510.189771" p-id="2264"></path></svg>